<svg xmlns="http://www.w3.org/2000/svg" width="22" height="18" viewBox="0 0 22 18">
  <defs>
    <style>
      .cls-1 {
        fill: #a3bbc8;
        fill-rule: evenodd;
      }
    </style>
  </defs>
  <path id="Forma_1" data-name="Forma 1" class="cls-1" d="M882.99,590.82a6.21,6.21,0,0,0-1.849-4.1A5.872,5.872,0,0,0,877,585c-2.311,0-3.948,1.785-4.827,2.745l-0.156.169-0.083-.094c-0.8-.916-2.476-2.82-4.938-2.82a5.874,5.874,0,0,0-4.139,1.721,6.21,6.21,0,0,0-1.849,4.1,6.832,6.832,0,0,0,1.271,4.338,29.141,29.141,0,0,0,4.763,4.747c1.705,1.412,3.95,3.093,4.965,3.093,1.032,0,3.269-1.679,4.965-3.086a29.012,29.012,0,0,0,4.746-4.755A6.907,6.907,0,0,0,882.99,590.82Zm-2.376,3.61a27.046,27.046,0,0,1-4.431,4.418c-2.406,2-3.831,2.8-4.172,2.826-0.342-.035-1.77-0.833-4.188-2.843a27.134,27.134,0,0,1-4.437-4.4,5.591,5.591,0,0,1-1.054-3.539A4.807,4.807,0,0,1,867,586.322c1.863,0,3.216,1.542,3.943,2.37a1.517,1.517,0,0,0,1.059.755,1.721,1.721,0,0,0,1.151-.809c0.794-.866,2.122-2.316,3.851-2.316a4.807,4.807,0,0,1,4.666,4.569A5.529,5.529,0,0,1,880.614,594.43Z" transform="translate(-861 -585)"/>
</svg>
