<svg xmlns="http://www.w3.org/2000/svg" width="20" height="20" viewBox="0 0 20 20">
  <defs>
    <style>
      .cls-1 {
        fill: #a3bbc8;
        fill-rule: evenodd;
      }
    </style>
  </defs>
  <path id="Forma_1" data-name="Forma 1" class="cls-1" d="M759.45,600.8l-4.588-4.589a8.819,8.819,0,0,1-2.651,2.651l4.588,4.588A1.874,1.874,0,1,0,759.45,600.8ZM755,591.5a7.5,7.5,0,1,0-7.5,7.5A7.5,7.5,0,0,0,755,591.5Zm-7.5,5.625a5.626,5.626,0,1,1,5.625-5.625A5.631,5.631,0,0,1,747.5,597.124Zm-4.375-5.625h1.25a3.128,3.128,0,0,1,3.125-3.125v-1.251A4.381,4.381,0,0,0,743.125,591.5Z" transform="translate(-740 -584)"/>
</svg>
